<svg width="255" height="255" viewBox="0 0 255 255" fill="none" xmlns="http://www.w3.org/2000/svg">
<g clip-path="url(#clip0_632_2058)">
<rect y="0.905762" width="254.094" height="254.094" rx="127.047" fill="#04AA6D"/>
<path d="M177.003 110.717C177.003 110.717 180.649 114.623 185.741 114.623C189.763 114.623 192.685 112.193 192.685 108.865C192.685 104.786 188.953 102.905 184.439 102.905H181.777L180.186 99.3173L187.246 90.9557C188.75 89.1619 190.023 88.0335 190.023 88.0335C190.023 88.0335 188.895 88.0913 186.609 88.0913H175.123V82.0732H198.645V86.4711L189.213 97.3788C194.537 98.1311 199.745 101.921 199.745 108.605C199.745 115.173 194.769 121.249 186.175 121.249C177.987 121.249 173.445 116.099 173.445 116.099L177.003 110.717Z" fill="white"/>
<path d="M131.117 118.848L162.191 174.168L177.526 146.827L148.188 94.6025H114.047L99.8983 119.803L85.7503 94.6025H55.0522L99.7249 174.168L99.8983 173.879L100.072 174.168L131.117 118.848Z" fill="white"/>
<path d="M72.5757 55.4948L62.2347 45.5602L65.0325 43.8579L70.1977 49.1423C70.6687 49.6269 71.1157 50.126 71.5385 50.6399C71.9774 51.144 72.4292 51.6512 72.894 52.1615L72.9905 52.1028C72.7508 51.4555 72.5161 50.8162 72.2862 50.185C72.0626 49.5278 71.8569 48.8819 71.6689 48.2472L69.4703 41.1576L72.0028 39.6167L77.3128 44.8131C77.7999 45.2878 78.279 45.7675 78.75 46.252C79.2211 46.7365 79.6971 47.229 80.1779 47.7296L80.2744 47.6709C80.0347 47.0236 79.7919 46.3891 79.546 45.7677C79.3 45.1462 79.0621 44.5198 78.8322 43.8886L76.513 36.8724L79.1179 35.2875L83.3086 48.9643L80.0043 50.9748L75.2689 46.2881C74.7978 45.8036 74.3397 45.3222 73.8945 44.844C73.4395 44.3497 72.957 43.8281 72.4468 43.2793L72.3503 43.338C72.6193 44.0336 72.8687 44.697 73.0986 45.3283C73.3285 45.9595 73.5503 46.5957 73.7641 47.2367L75.7594 53.5576L72.5757 55.4948Z" fill="white"/>
<path d="M93.5042 44.7797C92.1496 45.2947 90.9191 45.5008 89.8127 45.3979C88.7173 45.2708 87.7467 44.9954 86.9011 44.5719L87.61 42.0672C88.3142 42.3835 89.062 42.6025 89.8534 42.7245C90.6381 42.8288 91.4527 42.7205 92.2972 42.3994C93.212 42.0516 93.8673 41.5507 94.263 40.8968C94.6697 40.2186 94.7225 39.4837 94.4215 38.692C94.2007 38.1115 93.8606 37.6669 93.4009 37.3584C92.9522 37.0256 92.3237 36.882 91.5154 36.9275C90.7248 36.9664 89.6873 37.23 88.403 37.7183L87.5601 35.5016C89.2139 34.8728 90.2604 34.1829 90.6998 33.4319C91.1392 32.6809 91.2117 31.9183 90.9174 31.1442C90.6498 30.4405 90.2225 29.9787 89.6355 29.7589C89.0418 29.5215 88.358 29.55 87.5839 29.8443C86.9329 30.0918 86.3916 30.4688 85.9599 30.9752C85.5216 31.4641 85.1376 32.043 84.808 32.712L82.5386 31.4304C83.0191 30.5227 83.5905 29.7216 84.2526 29.0268C84.9323 28.3254 85.7735 27.784 86.7763 27.4027C88.3949 26.7873 89.8527 26.676 91.1499 27.0688C92.4403 27.444 93.3564 28.3442 93.8983 29.7692C94.2528 30.7016 94.2899 31.5936 94.0096 32.4453C93.7402 33.2726 93.215 34.0361 92.434 34.7358L92.4741 34.8414C93.5597 34.7307 94.5705 34.9001 95.5066 35.3496C96.4427 35.7991 97.1215 36.5781 97.5429 37.6864C97.9309 38.7068 97.9893 39.6814 97.7182 40.6101C97.4646 41.532 96.9628 42.3571 96.2127 43.0853C95.4803 43.8068 94.5774 44.3716 93.5042 44.7797Z" fill="white"/>
<path d="M106.78 40.6352C105.862 40.8412 104.904 40.8728 103.908 40.7299C102.907 40.5687 102.017 40.2959 101.236 39.9117L102.266 37.5394C102.975 37.8625 103.664 38.0938 104.331 38.2333C104.999 38.3728 105.673 38.3663 106.353 38.2138C107.087 38.049 107.594 37.7713 107.873 37.3808C108.152 36.9903 108.24 36.5655 108.137 36.1063C108.05 35.7207 107.833 35.4414 107.486 35.2686C107.152 35.0733 106.745 34.9333 106.263 34.8486C105.777 34.7454 105.274 34.6556 104.756 34.5791C104.119 34.4906 103.471 34.3562 102.813 34.1759C102.17 33.9731 101.609 33.6649 101.13 33.2515C100.648 32.8197 100.322 32.2273 100.153 31.4743C99.8849 30.2806 100.107 29.2084 100.82 28.2576C101.532 27.3068 102.642 26.6624 104.148 26.3245C105.103 26.1102 105.994 26.0839 106.821 26.2455C107.648 26.4071 108.384 26.6373 109.03 26.936L108.003 29.192C107.447 28.9502 106.898 28.7839 106.357 28.6932C105.83 28.58 105.301 28.5831 104.768 28.7026C104.088 28.8551 103.616 29.1153 103.352 29.4834C103.083 29.833 102.996 30.219 103.091 30.6414C103.21 31.174 103.576 31.5162 104.189 31.6681C104.802 31.8199 105.505 31.942 106.297 32.0343C106.971 32.1145 107.639 32.254 108.3 32.4527C108.958 32.633 109.538 32.937 110.039 33.3647C110.558 33.7883 110.913 34.4225 111.102 35.2672C111.362 36.4242 111.134 37.5169 110.42 38.5453C109.701 39.5553 108.488 40.2519 106.78 40.6352Z" fill="white"/>
<path d="M120.954 38.4191C119.697 38.5295 118.538 38.3481 117.476 37.8746C116.431 37.3808 115.562 36.6259 114.868 35.6099C114.191 34.5736 113.786 33.2961 113.652 31.7774C113.517 30.2399 113.721 28.9088 114.265 27.784C114.807 26.6405 115.578 25.7413 116.578 25.0865C117.596 24.4113 118.714 24.0201 119.933 23.9129C120.814 23.8354 121.596 23.9178 122.279 24.16C122.961 24.4023 123.575 24.7168 124.119 25.1035L122.729 27.3514C122.345 27.0639 121.958 26.8524 121.568 26.7166C121.177 26.5621 120.765 26.5038 120.334 26.5417C119.228 26.639 118.356 27.1408 117.717 28.0472C117.098 28.9519 116.849 30.098 116.971 31.4855C117.091 32.8542 117.526 33.9307 118.275 34.7151C119.043 35.4978 119.971 35.8414 121.059 35.7457C121.602 35.6979 122.099 35.5409 122.548 35.2747C123.014 34.9881 123.429 34.6681 123.795 34.3147L125.305 36.3359C124.717 36.9544 124.042 37.4389 123.279 37.7894C122.516 38.1399 121.741 38.3498 120.954 38.4191Z" fill="white"/>
<path d="M128.212 37.5536L129.447 17.6596L132.688 17.8607L132.369 22.9892L132.09 25.6592C132.707 25.1506 133.384 24.7117 134.124 24.3428C134.865 23.955 135.705 23.7903 136.644 23.8486C138.128 23.9407 139.178 24.4868 139.795 25.4869C140.412 26.4869 140.666 27.8605 140.558 29.6075L140.019 38.2865L136.778 38.0853L137.291 29.829C137.362 28.6831 137.243 27.8648 136.934 27.3742C136.625 26.8836 136.086 26.6144 135.315 26.5666C134.714 26.5292 134.169 26.6463 133.681 26.9177C133.213 27.1715 132.67 27.5621 132.053 28.0895L131.453 37.7547L128.212 37.5536Z" fill="white"/>
<path d="M149.748 40.4188C148.629 40.162 147.646 39.6469 146.8 38.8734C145.958 38.0816 145.355 37.0934 144.989 35.9088C144.628 34.7059 144.618 33.3614 144.959 31.8755C145.304 30.3712 145.899 29.1657 146.745 28.259C147.594 27.3339 148.568 26.7077 149.667 26.3805C150.77 26.0349 151.881 25.9905 153 26.2473C154.137 26.5083 155.127 27.0347 155.968 27.8265C156.814 28.6 157.418 29.5882 157.779 30.7911C158.145 31.9757 158.155 33.3202 157.81 34.8245C157.469 36.3104 156.873 37.5159 156.024 38.441C155.178 39.3477 154.204 39.9739 153.102 40.3195C152.003 40.6467 150.885 40.6798 149.748 40.4188ZM150.341 37.8322C151.332 38.0595 152.206 37.8256 152.964 37.1306C153.722 36.4356 154.255 35.4185 154.562 34.0793C154.874 32.7218 154.84 31.565 154.461 30.609C154.082 29.653 153.397 29.0613 152.406 28.834C151.415 28.6066 150.541 28.8405 149.783 29.5355C149.043 30.2347 148.517 31.2631 148.206 32.6206C147.899 33.9598 147.925 35.1053 148.286 36.0571C148.666 37.0132 149.351 37.6048 150.341 37.8322Z" fill="white"/>
<path d="M164.309 44.8868C163.244 44.4579 162.354 43.7953 161.64 42.8989C160.932 41.985 160.491 40.9145 160.315 39.6873C160.147 38.4426 160.348 37.1132 160.917 35.699C161.494 34.2673 162.27 33.1699 163.247 32.4067C164.231 31.6261 165.291 31.1602 166.427 31.0091C167.571 30.8404 168.675 30.9706 169.74 31.3994C170.822 31.8354 171.717 32.5102 172.425 33.4241C173.139 34.3205 173.581 35.391 173.749 36.6357C173.924 37.8629 173.724 39.1923 173.147 40.624C172.578 42.0382 171.801 43.1356 170.817 43.9163C169.84 44.6794 168.78 45.1453 167.637 45.3139C166.501 45.4651 165.391 45.3227 164.309 44.8868ZM165.3 42.425C166.243 42.8047 167.143 42.7107 168.001 42.1429C168.858 41.5752 169.544 40.6541 170.057 39.3796C170.577 38.0876 170.725 36.9398 170.5 35.9361C170.275 34.9325 169.691 34.2409 168.749 33.8612C167.806 33.4816 166.906 33.5756 166.048 34.1433C165.208 34.7181 164.528 35.6514 164.007 36.9434C163.494 38.218 163.341 39.3535 163.549 40.3501C163.773 41.3537 164.357 42.0454 165.3 42.425Z" fill="white"/>
<path d="M176.168 50.5379C175.161 49.9862 174.61 49.2874 174.516 48.4415C174.438 47.6046 174.688 46.658 175.267 45.6016L183.136 31.2414L185.984 32.8016L178.033 47.3104C177.843 47.657 177.774 47.9408 177.824 48.1617C177.884 48.3661 177.988 48.509 178.137 48.5904C178.203 48.6266 178.26 48.6583 178.31 48.6854C178.385 48.7051 178.485 48.7383 178.609 48.7851L177.814 51.1179C177.613 51.0935 177.366 51.0337 177.075 50.9385C176.8 50.8523 176.498 50.7188 176.168 50.5379Z" fill="white"/>
<path d="M183.01 54.794C182.237 54.2577 181.565 53.5746 180.996 52.7444C180.437 51.8989 180.035 51.0587 179.789 50.2241L182.232 49.3759C182.474 50.1165 182.77 50.7798 183.12 51.3657C183.47 51.9517 183.93 52.443 184.503 52.8398C185.121 53.2688 185.669 53.4537 186.145 53.3946C186.621 53.3354 186.993 53.1125 187.262 52.7258C187.487 52.401 187.545 52.0522 187.437 51.6795C187.355 51.3021 187.183 50.9074 186.919 50.4953C186.665 50.0678 186.391 49.6373 186.096 49.2037C185.73 48.6749 185.391 48.1075 185.078 47.5013C184.792 46.8905 184.638 46.269 184.619 45.6368C184.61 44.9893 184.825 44.3484 185.265 43.7142C185.962 42.7089 186.901 42.1465 188.084 42.0271C189.266 41.9077 190.491 42.2878 191.759 43.1672C192.564 43.7249 193.186 44.3628 193.627 45.0809C194.069 45.799 194.398 46.4969 194.615 47.1743L192.259 47.9458C192.061 47.3731 191.812 46.8569 191.512 46.3972C191.239 45.9327 190.878 45.545 190.429 45.2339C189.857 44.8371 189.346 44.6659 188.896 44.7204C188.457 44.7593 188.114 44.9567 187.867 45.3124C187.556 45.761 187.552 46.2621 187.855 46.8159C188.158 47.3697 188.544 47.9693 189.013 48.6148C189.41 49.1651 189.759 49.751 190.061 50.3726C190.374 50.9788 190.543 51.611 190.567 52.2693C190.607 52.9383 190.38 53.6286 189.887 54.3401C189.211 55.3145 188.253 55.887 187.013 56.0575C185.783 56.2126 184.449 55.7914 183.01 54.794Z" fill="white"/>
</g>
<path d="M89.034 226.021C88.131 225.725 87.3799 225.258 86.7808 224.622C86.186 223.973 85.8009 223.202 85.6253 222.309C85.4542 221.403 85.5458 220.414 85.9003 219.343C86.2504 218.286 86.7648 217.443 87.4436 216.816C88.1356 216.193 88.8947 215.79 89.7209 215.607C90.5472 215.423 91.3387 215.456 92.0957 215.704C92.9855 215.996 93.6635 216.438 94.1298 217.031C94.6005 217.61 94.8726 218.3 94.9462 219.101C95.024 219.889 94.912 220.739 94.6101 221.651C94.4525 222.127 94.2968 222.486 94.1429 222.729L87.9279 220.69C87.7497 221.584 87.8408 222.354 88.2011 223C88.5615 223.646 89.1335 224.097 89.917 224.354C90.342 224.493 90.7534 224.562 91.1514 224.561C91.567 224.551 91.9912 224.492 92.4242 224.385L92.7285 226.067C92.163 226.219 91.5619 226.3 90.9253 226.311C90.2886 226.322 89.6582 226.225 89.034 226.021ZM88.4199 219.137L92.7625 220.561C93.0119 219.808 93.0406 219.165 92.8487 218.633C92.6611 218.088 92.2353 217.706 91.5713 217.489C91.0002 217.301 90.4189 217.345 89.8274 217.62C89.2535 217.886 88.7843 218.392 88.4199 219.137Z" fill="white"/>
<path d="M98.7907 228.795C98.1112 228.631 97.4629 228.339 96.8459 227.918C96.2322 227.484 95.7284 227.012 95.3345 226.501L96.8004 225.265C97.1667 225.711 97.5493 226.09 97.9485 226.401C98.3476 226.712 98.7986 226.928 99.3014 227.049C99.845 227.18 100.274 227.162 100.588 226.994C100.902 226.826 101.1 226.573 101.183 226.235C101.252 225.951 101.199 225.695 101.024 225.466C100.866 225.228 100.641 225.002 100.348 224.788C100.058 224.56 99.7523 224.336 99.4319 224.116C99.0364 223.849 98.6492 223.548 98.2703 223.213C97.9082 222.868 97.6356 222.48 97.4526 222.05C97.2729 221.605 97.2505 221.106 97.3853 220.551C97.5991 219.672 98.0996 219.034 98.8868 218.636C99.6739 218.239 100.625 218.174 101.739 218.443C102.446 218.613 103.048 218.887 103.546 219.265C104.044 219.642 104.459 220.036 104.791 220.445L103.365 221.605C103.075 221.263 102.764 220.974 102.433 220.736C102.119 220.489 101.765 220.318 101.371 220.223C100.868 220.102 100.468 220.12 100.171 220.277C99.877 220.421 99.6922 220.649 99.6165 220.96C99.5211 221.352 99.6526 221.699 100.011 222C100.369 222.301 100.797 222.612 101.295 222.932C101.718 223.206 102.117 223.517 102.492 223.865C102.871 224.2 103.157 224.591 103.351 225.039C103.558 225.49 103.585 226.026 103.434 226.648C103.227 227.501 102.716 228.151 101.902 228.599C101.092 229.034 100.055 229.099 98.7907 228.795Z" fill="white"/>
<path d="M109.775 230.994C108.602 230.8 107.824 230.326 107.44 229.571C107.072 228.804 106.978 227.879 107.159 226.794L107.964 221.975L106.515 221.735L106.811 219.964L108.401 220.121L109.151 217.409L111.137 217.738L110.676 220.498L113.263 220.925L112.95 222.799L110.364 222.372L109.559 227.191C109.362 228.372 109.739 229.041 110.691 229.198C110.87 229.228 111.06 229.238 111.26 229.229C111.462 229.206 111.637 229.179 111.784 229.146L111.906 230.965C111.614 231.016 111.283 231.046 110.913 231.055C110.554 231.081 110.175 231.06 109.775 230.994Z" fill="white"/>
<path d="M115.859 231.797C115.428 231.751 115.077 231.559 114.804 231.222C114.531 230.884 114.42 230.48 114.471 230.01C114.522 229.539 114.717 229.168 115.056 228.897C115.395 228.625 115.78 228.512 116.21 228.559C116.655 228.607 117.007 228.798 117.266 229.134C117.525 229.47 117.629 229.873 117.578 230.344C117.527 230.814 117.339 231.186 117.014 231.459C116.689 231.732 116.304 231.845 115.859 231.797Z" fill="white"/>
<path d="M127.528 232.364L127.509 230.402L130.487 230.374L130.404 221.647L127.95 221.67L127.936 220.167C128.592 220.036 129.164 219.884 129.652 219.713C130.139 219.527 130.592 219.307 131.009 219.053L132.812 219.036L132.92 230.351L135.541 230.326L135.56 232.289L127.528 232.364Z" fill="white"/>
<path d="M139.938 222.793C140.015 223.568 140.254 224.139 140.656 224.505C141.072 224.87 141.614 225.019 142.282 224.953C142.671 224.914 143.063 224.757 143.457 224.48C143.863 224.188 144.214 223.755 144.508 223.18C144.266 222.029 143.897 221.213 143.399 220.73C142.902 220.248 142.326 220.039 141.672 220.104C141.129 220.157 140.684 220.418 140.338 220.886C139.991 221.354 139.857 221.989 139.938 222.793ZM142.418 232.031C141.625 232.109 140.922 232.032 140.309 231.799C139.695 231.565 139.166 231.261 138.721 230.885L139.87 229.303C140.15 229.569 140.487 229.781 140.882 229.938C141.289 230.079 141.695 230.13 142.098 230.09C142.655 230.035 143.148 229.833 143.576 229.483C144.005 229.132 144.33 228.59 144.552 227.855C144.773 227.105 144.836 226.12 144.742 224.899C144.4 225.408 143.978 225.827 143.477 226.157C142.975 226.486 142.481 226.674 141.994 226.723C140.854 226.835 139.888 226.595 139.098 226.002C138.321 225.393 137.863 224.396 137.725 223.011C137.637 222.125 137.749 221.344 138.061 220.67C138.386 219.981 138.844 219.432 139.435 219.024C140.039 218.6 140.717 218.352 141.469 218.277C142.331 218.192 143.147 218.342 143.916 218.728C144.699 219.112 145.354 219.761 145.881 220.674C146.42 221.572 146.763 222.762 146.911 224.244C147.081 225.947 146.976 227.363 146.597 228.492C146.216 229.606 145.654 230.452 144.911 231.029C144.168 231.606 143.337 231.94 142.418 232.031Z" fill="white"/>
<path d="M151.105 221.405C151.254 222.171 151.545 222.717 151.979 223.044C152.427 223.369 152.98 223.468 153.639 223.341C154.023 223.267 154.399 223.074 154.765 222.763C155.143 222.435 155.452 221.971 155.691 221.372C155.345 220.248 154.901 219.469 154.361 219.034C153.821 218.6 153.228 218.444 152.583 218.569C152.047 218.672 151.629 218.972 151.327 219.47C151.025 219.968 150.951 220.613 151.105 221.405ZM154.43 230.377C153.648 230.527 152.94 230.515 152.308 230.339C151.676 230.163 151.121 229.908 150.643 229.575L151.64 227.894C151.943 228.134 152.299 228.313 152.706 228.433C153.125 228.537 153.534 228.55 153.932 228.474C154.481 228.368 154.953 228.121 155.347 227.733C155.742 227.345 156.016 226.775 156.168 226.022C156.319 225.256 156.29 224.269 156.084 223.062C155.79 223.6 155.409 224.056 154.94 224.43C154.472 224.804 153.997 225.037 153.517 225.13C152.391 225.347 151.408 225.196 150.566 224.678C149.736 224.143 149.188 223.192 148.922 221.826C148.752 220.951 148.791 220.164 149.04 219.464C149.299 218.748 149.704 218.159 150.256 217.699C150.818 217.222 151.47 216.912 152.211 216.769C153.062 216.605 153.889 216.68 154.69 216.993C155.505 217.304 156.218 217.89 156.826 218.75C157.446 219.595 157.899 220.748 158.183 222.21C158.51 223.891 158.537 225.311 158.263 226.469C157.988 227.614 157.506 228.508 156.819 229.151C156.133 229.793 155.336 230.202 154.43 230.377Z" fill="white"/>
<path d="M166.771 227.486C165.938 227.723 165.15 227.789 164.406 227.683C163.659 227.563 163.022 227.296 162.496 226.881C161.969 226.467 161.606 225.912 161.405 225.216C161.178 224.426 161.223 223.697 161.539 223.028C161.855 222.358 162.27 221.777 162.782 221.283L162.759 221.203C162.162 220.997 161.619 220.703 161.131 220.321C160.652 219.921 160.317 219.387 160.124 218.718C159.924 218.023 159.92 217.379 160.114 216.788C160.303 216.184 160.647 215.659 161.144 215.213C161.654 214.763 162.279 214.433 163.019 214.222C164.175 213.892 165.181 213.953 166.038 214.403C166.905 214.837 167.486 215.568 167.783 216.599C167.964 217.228 167.946 217.848 167.729 218.46C167.513 219.072 167.241 219.591 166.912 220.018L166.936 220.098C167.623 220.264 168.262 220.538 168.852 220.92C169.442 221.302 169.86 221.921 170.107 222.777C170.295 223.433 170.283 224.073 170.071 224.699C169.858 225.324 169.473 225.882 168.917 226.374C168.36 226.866 167.645 227.236 166.771 227.486ZM165.475 219.798C165.724 219.351 165.884 218.921 165.955 218.51C166.039 218.095 166.023 217.687 165.908 217.286C165.746 216.724 165.445 216.31 165.005 216.045C164.561 215.766 164.043 215.711 163.452 215.879C162.955 216.021 162.582 216.294 162.335 216.698C162.087 217.101 162.043 217.577 162.201 218.126C162.324 218.554 162.542 218.883 162.855 219.112C163.165 219.328 163.545 219.487 163.997 219.59C164.458 219.676 164.95 219.745 165.475 219.798ZM166.338 225.828C166.956 225.652 167.412 225.341 167.706 224.895C168.009 224.432 168.076 223.907 167.906 223.318C167.771 222.85 167.52 222.509 167.153 222.295C166.8 222.077 166.357 221.928 165.825 221.848C165.302 221.751 164.719 221.671 164.076 221.609C163.757 222.018 163.522 222.462 163.368 222.94C163.228 223.414 163.23 223.899 163.372 224.394C163.553 225.023 163.928 225.466 164.497 225.724C165.066 225.981 165.679 226.016 166.338 225.828Z" fill="white"/>
<defs>
<clipPath id="clip0_632_2058">
<rect y="0.905762" width="254.094" height="254.094" rx="127.047" fill="white"/>
</clipPath>
</defs>
</svg>
